# xmcd CD database file
#
# Track frame offsets:
#	182
#	14670
#	29872
#	44975
#	58060
#	67537
#	83640
#	98392
#	110255
#	125202
#	136917
#	150365
#	167785
#	184037
#
# Disc length: 2650 seconds
#
# Revision: 0
# Processed by: cddbd v1.5.2PL0 Copyright (c) Steve Scherf et al.
# Submitted via: cdripper 1,0,33,916
#
DISCID=b90a580e
DTITLE=Glenn Miller - 28 Greatest Hits - CD1
DYEAR=1900
DGENRE=Jazz
TTITLE0=In the Mood
TTITLE1=American Patrol
TTITLE2=Boogie Woogie
TTITLE3=Runnin' Wild
TTITLE4=Serenade in Blue
TTITLE5=Amapola
TTITLE6=The Chestnut Tree
TTITLE7=Baby Me
TTITLE8=I've got a Gal in Kalamazoo
TTITLE9=Little Brown Jug
TTITLE10=April in Paris
TTITLE11=I'm getting Sentimental over You
TTITLE12=Green Eyes
TTITLE13=Sunrise Serenade
EXTD=
EXTT0=
EXTT1=
EXTT2=
EXTT3=
EXTT4=
EXTT5=
EXTT6=
EXTT7=
EXTT8=
EXTT9=
EXTT10=
EXTT11=
EXTT12=
EXTT13=
PLAYORDER=
